<?xml version="1.0" encoding="UTF-8"?>
<svg xmlns="http://www.w3.org/2000/svg" xmlns:xlink="http://www.w3.org/1999/xlink" viewBox="0 0 500 500" width="500px" height="500px">
<g id="surface15896308">
<path style=" stroke:none;fill-rule:nonzero;fill:rgb(14.509805%,41.568628%,70.588237%);fill-opacity:1;" d="M 80 40 C 57.929688 40 40 57.929688 40 80 L 40 420 C 40 442.070312 57.929688 460 80 460 L 240 460 L 240 385.859375 L 325.859375 300 L 240 300 L 240 210 L 125.859375 210 L 240 95.859375 L 240 40 Z M 260 40 L 260 104.140625 L 174.140625 190 L 260 190 L 260 280 L 374.140625 280 L 260 394.140625 L 260 460 L 420 460 C 442.070312 460 460 442.070312 460 420 L 460 80 C 460 57.929688 442.070312 40 420 40 Z M 260 40 "/>
</g>
</svg>
